<svg viewBox="0 0 100 100" xmlns="http://www.w3.org/2000/svg" fill="none" stroke="currentColor" stroke-width="5" stroke-linecap="round" stroke-linejoin="round">
  <path d="M38 20 L38 12 L45 17 L50 9 L55 17 L62 12 L62 20" />
  <path d="M50 19 C58 19 60 25 67 25 C75 25 76 33 81 37 C88 43 84 51 86 57 C88 65 80 67 79 74 C77 82 69 80 65 84 C59 90 55 84 50 84 C45 84 41 90 35 84 C31 80 23 82 21 74 C20 67 12 65 14 57 C16 51 12 43 19 37 C24 33 25 25 33 25 C40 25 42 19 50 19 Z" />
  <path d="M50 30 C62 30 70 39 70 51 C70 65 61 72 50 72 C39 72 30 65 30 51 C30 39 38 30 50 30 Z" />
  <path d="M36 36 C33 31 35 28 39 31" />
  <path d="M64 36 C67 31 65 28 61 31" />
  <circle cx="42" cy="48" r="2.4" fill="currentColor" stroke="none" />
  <circle cx="58" cy="48" r="2.4" fill="currentColor" stroke="none" />
  <path d="M45 56 L55 56 L50 62 Z" fill="currentColor" stroke="none" />
  <path d="M50 62 L50 65" />
  <path d="M50 65 C46 68 43 66 41 64" />
  <path d="M50 65 C54 68 57 66 59 64" />
</svg>