<svg viewBox="0 0 100 100" xmlns="http://www.w3.org/2000/svg" fill="currentColor">
  <path fill-rule="evenodd" clip-rule="evenodd" d="M50 3
    L55 11 L63 6 L65 15 L74 13 L73 22 L82 23 L77 30
    L86 34 L79 40 L87 46 L78 50 L87 54 L79 60 L86 66 L77 70
    L82 77 L73 78 L74 87 L65 85 L63 94 L55 89 L50 97
    L45 89 L37 94 L35 85 L26 87 L27 78 L18 77 L23 70
    L14 66 L21 60 L13 54 L22 50 L13 46 L21 40 L14 34
    L23 30 L18 23 L27 22 L26 13 L35 15 L37 6 L45 11 Z
    M50 21
    C39.5 21 31 29.5 31 40
    C31 41.5 31.2 43 31.5 44.4
    C29 44 26.4 45 25 47.2
    C23.2 50 24 53.8 26.8 55.6
    C28.3 56.6 30 57 31.7 56.8
    C34 65 41.3 71 50 71
    C58.7 71 66 65 68.3 56.8
    C70 57 71.7 56.6 73.2 55.6
    C76 53.8 76.8 50 75 47.2
    C73.6 45 71 44 68.5 44.4
    C68.8 43 69 41.5 69 40
    C69 29.5 60.5 21 50 21 Z" />
  <path d="M40 41 a3.4 3.4 0 1 0 6.8 0 a3.4 3.4 0 1 0 -6.8 0 Z" />
  <path d="M53.2 41 a3.4 3.4 0 1 0 6.8 0 a3.4 3.4 0 1 0 -6.8 0 Z" />
  <path d="M50 50
    C52.5 50 54.5 51.6 54.5 53.6
    C54.5 55 53.6 56.2 52.3 56.8
    C53 58 53 59.6 52 61
    C51.4 61.8 50.7 62.3 50 62.3
    C49.3 62.3 48.6 61.8 48 61
    C47 59.6 47 58 47.7 56.8
    C46.4 56.2 45.5 55 45.5 53.6
    C45.5 51.6 47.5 50 50 50 Z" />
</svg>