<svg viewBox="0 0 100 100" xmlns="http://www.w3.org/2000/svg" fill="none" stroke="currentColor" stroke-width="3.4" stroke-linecap="round" stroke-linejoin="round"><path d="M50 8 C32 8 22 21 22 36 C16 39 13 46 16 53 C12 57 13 64 19 66 C18 73 23 79 31 79 C33 86 42 89 49 84 C56 90 67 88 68 79 C77 80 83 73 81 65 C88 62 89 54 84 50 C88 43 85 35 78 34 C78 20 67 8 50 8 Z" fill="currentColor" fill-opacity="0.08"/><path d="M40 30 C46 24 58 23 66 28 C73 32 76 40 75 49 C74 60 66 70 56 73 C49 75 42 73 40 68" fill="currentColor"/><path d="M40 68 C36 66 34 60 35 54" stroke="currentColor"/><circle cx="58" cy="40" r="2.6" fill="currentColor" stroke="none"/><path d="M75 49 C74 48 72 47 70 48" stroke="currentColor"/><path d="M56 73 C58 78 62 82 68 82" stroke="currentColor"/><path d="M40 68 C42 76 44 82 38 86 C45 84 49 80 49 73" fill="currentColor" stroke="none"/></svg>